# xmcd
#
# Track frame offsets:
#	150
#	13397
#	29497
#	42994
#	60525
#	77349
#	92103
#	108259
#	127575
#	142579
#	155882
#	169011
#	185385
#	202441
#	219620
#	236372
#	251087
#	269540
#	283638
#	297211
#
# Disc length: 4174 seconds
# Revision: 2
# Processed by: cddbd v1.5.2PL0 Copyright (c) Steve Scherf et al.
# Submitted via: dBpowerAMP V12.0
#
DISCID=22104c14
DTITLE=Various Artist - Cream Of Country 2018
DYEAR=2018
DGENRE=Country Sampler
TTITLE0=Cole Swindell - Flatliner
TTITLE1=Kenny Chesney - All The Pretty Girls
TTITLE2=Chris Young - Losing Sleep
TTITLE3=Tim McGraw and Faith Hill - Speak To A Girl
TTITLE4=Luke Combs - Hurricane
TTITLE5=Walker Hayes - You Broke Up With Me
TTITLE6=Blake Shelton - Every Time I Hear That Song
TTITLE7=Miranda Lambert - Tin Man
TTITLE8=Lee Brice - Boy
TTITLE9=Old Dominion - No Such Thing As A Broken Heart
TTITLE10=Jake Owen - Good Company
TTITLE11=Kelsea Ballerini - Unapologetically
TTITLE12=Zac Brown Band - My Old Man
TTITLE13=Brad Paisley - Today
TTITLE14=LANCO - Greatest Love Story
TTITLE15=Maren Morris - I Could Use A Love Song
TTITLE16=Chris Janson - Holdin' Her
TTITLE17=Tyler Farr - I Should Go To Church Sometime
TTITLE18=High Valley - She's With Me
TTITLE19=Cam - Diane
EXTD=
EXTT0=
EXTT1=
EXTT2=
EXTT3=
EXTT4=
EXTT5=
EXTT6=
EXTT7=
EXTT8=
EXTT9=
EXTT10=
EXTT11=
EXTT12=
EXTT13=
EXTT14=
EXTT15=
EXTT16=
EXTT17=
EXTT18=
EXTT19=
PLAYORDER=
